<svg id="Layer_1" data-name="Layer 1" xmlns="http://www.w3.org/2000/svg" xmlns:xlink="http://www.w3.org/1999/xlink" viewBox="0 0 503 153"><defs><style>.cls-1{fill:url(#linear-gradient);}.cls-2{fill:none;stroke-miterlimit:10;stroke-width:3px;stroke:url(#linear-gradient-2);}</style><linearGradient id="linear-gradient" x1="11.87" y1="31.12" x2="121.11" y2="140.36" gradientUnits="userSpaceOnUse"><stop offset="0.15" stop-color="#0fb9f4"/><stop offset="0.34" stop-color="#0db3ee"/><stop offset="0.59" stop-color="#08a3de"/><stop offset="0.85" stop-color="#008ac6"/></linearGradient><linearGradient id="linear-gradient-2" x1="0" y1="76.5" x2="503" y2="76.5" xlink:href="#linear-gradient"/></defs><title>logo</title><path class="cls-1" d="M67,56.59a50.09,50.09,0,0,1,4.5-2.41,49.5,49.5,0,1,1,0,89.65V113.46A25.49,25.49,0,1,0,67,99v49.5H43V99A49.53,49.53,0,0,1,67,56.59ZM43,0V77.43a54.32,54.32,0,0,1,24-26V0Z" transform="translate(1.5 1.5)"/><rect class="cls-2" x="1.5" y="1.5" width="500" height="150"/><path d="M193.56,74.25l-5.44-9.31A10,10,0,0,1,187,65h-7.1v9.26h-6V42.78H187q6.11,0,9.44,2.83a9.94,9.94,0,0,1,3.33,8,11.83,11.83,0,0,1-1.6,6.29,9.77,9.77,0,0,1-4.65,3.91l6.92,10.43ZM179.89,59.69H187a8,8,0,0,0,5.21-1.48A5.38,5.38,0,0,0,194,53.8a5.2,5.2,0,0,0-1.8-4.32A8.19,8.19,0,0,0,187,48h-7.1Z" transform="translate(1.5 1.5)"/><path d="M209.76,69.08a3.15,3.15,0,0,1,.88,2.29,3.28,3.28,0,0,1-.88,2.36,2.94,2.94,0,0,1-2.23.92,2.85,2.85,0,0,1-2.18-.94,3.3,3.3,0,0,1-.88-2.34,3.15,3.15,0,0,1,.88-2.29,2.92,2.92,0,0,1,2.18-.9A3,3,0,0,1,209.76,69.08Z" transform="translate(1.5 1.5)"/><path d="M213,42.78h25.67v5.35h-9.8V74.25h-6.07V48.13H213Z" transform="translate(1.5 1.5)"/><path d="M243.79,69.08a3.15,3.15,0,0,1,.88,2.29,3.28,3.28,0,0,1-.88,2.36,2.94,2.94,0,0,1-2.23.92,2.85,2.85,0,0,1-2.18-.94,3.31,3.31,0,0,1-.88-2.34,3.15,3.15,0,0,1,.88-2.29,2.92,2.92,0,0,1,2.18-.9A3,3,0,0,1,243.79,69.08Z" transform="translate(1.5 1.5)"/><path d="M283.44,44.9a6.75,6.75,0,0,1,2.9,5.75,6.88,6.88,0,0,1-5.48,7,8.12,8.12,0,0,1,4.92,2.7,7.9,7.9,0,0,1,1.78,5.26,7.49,7.49,0,0,1-3.12,6.36q-3.13,2.32-8.52,2.31H261.52V42.78h14Q280.54,42.78,283.44,44.9Zm-4.58,9.71a3.45,3.45,0,0,0,1.33-2.88,3.28,3.28,0,0,0-1.33-2.79,5.83,5.83,0,0,0-3.66-.94h-7.64v7.64h7.64A5.82,5.82,0,0,0,278.85,54.61ZM279.68,68a3.61,3.61,0,0,0,1.62-3.15,3.48,3.48,0,0,0-1.62-3,7.7,7.7,0,0,0-4.5-1.06h-7.64V69h7.64A7.57,7.57,0,0,0,279.68,68Z" transform="translate(1.5 1.5)"/><path d="M307.37,74.25V71.33a7.87,7.87,0,0,1-3.24,2.38,11.91,11.91,0,0,1-4.54.81,9.67,9.67,0,0,1-4.43-1,7.07,7.07,0,0,1-2.94-2.67,7.23,7.23,0,0,1-1-3.82,6.4,6.4,0,0,1,2.38-5.28,10.72,10.72,0,0,1,6.74-2h7v-.63a4,4,0,0,0-1.39-3.28,6.14,6.14,0,0,0-4-1.17A13.89,13.89,0,0,0,294.74,57l-2.11-4a26.63,26.63,0,0,1,5.15-2.27,18.89,18.89,0,0,1,5.42-.7q4.68,0,7.26,2.25a8,8,0,0,1,2.63,6.29l0,15.73Zm-2.07-5.42a4.14,4.14,0,0,0,2-2.94V63.73h-6.07a6.6,6.6,0,0,0-3.44.7,2.48,2.48,0,0,0-1.1,2.27,2.92,2.92,0,0,0,1.15,2.43A4.93,4.93,0,0,0,301,70,7.64,7.64,0,0,0,305.3,68.83Z" transform="translate(1.5 1.5)"/><path d="M328.84,51.26A9.72,9.72,0,0,1,333.71,50v5.66a7.94,7.94,0,0,0-6,1.73,6.67,6.67,0,0,0-2.22,5.28v11.6h-5.84v-24h5.84v4.63A8.69,8.69,0,0,1,328.84,51.26Z" transform="translate(1.5 1.5)"/><path d="M357.92,51.57a10.46,10.46,0,0,1,4,4.34,14,14,0,0,1,1.42,6.43,13.81,13.81,0,0,1-1.39,6.34,10.27,10.27,0,0,1-4,4.27,11.36,11.36,0,0,1-5.93,1.53,10.32,10.32,0,0,1-4.76-1.06,9,9,0,0,1-3.42-3.08v3.91H338V40.9h5.84V54.16a8.67,8.67,0,0,1,3.35-3.08A10.2,10.2,0,0,1,352,50,11.35,11.35,0,0,1,357.92,51.57Zm-2.4,15.82a7.42,7.42,0,0,0,1.89-5.24,7.34,7.34,0,0,0-1.89-5.21,6.89,6.89,0,0,0-9.75,0,8.21,8.21,0,0,0,0,10.47,6.4,6.4,0,0,0,4.9,2A6.31,6.31,0,0,0,355.52,67.4Z" transform="translate(1.5 1.5)"/><path d="M387.09,53.3q2.9,3.28,2.9,9.22,0,1.17,0,1.75H372.19a6.7,6.7,0,0,0,6.88,5.48,9.14,9.14,0,0,0,3.53-.7,8.62,8.62,0,0,0,2.94-2l3.15,3.28a12.18,12.18,0,0,1-4.38,3.06,14.75,14.75,0,0,1-5.73,1.08,13.38,13.38,0,0,1-6.5-1.53,10.68,10.68,0,0,1-4.34-4.29,14,14,0,0,1,0-12.74,11,11,0,0,1,4.34-4.34A12.81,12.81,0,0,1,378.44,50Q384.2,50,387.09,53.3Zm-2.45,7.06a5.84,5.84,0,0,0-1.75-4.23,6.84,6.84,0,0,0-8.7,0,6.85,6.85,0,0,0-2.14,4.25Z" transform="translate(1.5 1.5)"/><path d="M413.71,53.3q2.9,3.28,2.9,9.22,0,1.17,0,1.75H398.8a6.7,6.7,0,0,0,6.88,5.48,9.14,9.14,0,0,0,3.53-.7,8.62,8.62,0,0,0,2.94-2l3.15,3.28a12.18,12.18,0,0,1-4.38,3.06,14.75,14.75,0,0,1-5.73,1.08,13.38,13.38,0,0,1-6.5-1.53,10.68,10.68,0,0,1-4.34-4.29,14,14,0,0,1,0-12.74,11,11,0,0,1,4.34-4.34A12.81,12.81,0,0,1,405.05,50Q410.81,50,413.71,53.3Zm-2.45,7.06a5.84,5.84,0,0,0-1.75-4.23,6.84,6.84,0,0,0-8.7,0,6.85,6.85,0,0,0-2.14,4.25Z" transform="translate(1.5 1.5)"/><path d="M190.36,93.55a11.67,11.67,0,0,0-10.26.63,11.33,11.33,0,0,0-4.18,4.16,11.5,11.5,0,0,0,0,11.51A11.54,11.54,0,0,0,180.1,114a11.28,11.28,0,0,0,5.8,1.54,11.57,11.57,0,0,0,4.42-.88,12.55,12.55,0,0,0,3.83-2.44l1.64,1.76a15.76,15.76,0,0,1-4.65,3,13.76,13.76,0,0,1-5.35,1.09,14.13,14.13,0,0,1-12.25-7,13.49,13.49,0,0,1-1.9-7,13.18,13.18,0,0,1,1.92-7,14.3,14.3,0,0,1,12.31-6.88,14.56,14.56,0,0,1,9.89,3.91L194.15,96A12,12,0,0,0,190.36,93.55Z" transform="translate(1.5 1.5)"/><path d="M219.76,92.12a14.1,14.1,0,0,1,5.18,5,13.19,13.19,0,0,1,1.91,7,13.4,13.4,0,0,1-1.91,7,14.4,14.4,0,0,1-24.7,0,13.38,13.38,0,0,1-1.92-7,13.18,13.18,0,0,1,1.92-7,14.07,14.07,0,0,1,5.18-5,14.78,14.78,0,0,1,14.34,0Zm-12.92,2.09a11.48,11.48,0,0,0-4.22,4.14,11,11,0,0,0-1.56,5.74,11.2,11.2,0,0,0,1.56,5.78,11.54,11.54,0,0,0,4.22,4.2,11.31,11.31,0,0,0,5.78,1.54,11.14,11.14,0,0,0,5.73-1.54,11.59,11.59,0,0,0,4.2-4.2,11.19,11.19,0,0,0,1.56-5.78,11,11,0,0,0-1.56-5.74,11.53,11.53,0,0,0-4.2-4.14,11.25,11.25,0,0,0-5.73-1.52A11.42,11.42,0,0,0,206.85,94.21Z" transform="translate(1.5 1.5)"/><path d="M232.8,90.46h3.36L246.86,111l10.59-20.52h3.36v27.35h-2.5l0-23.6-10.71,20.67h-1.49L235.33,94.21v23.6H232.8Z" transform="translate(1.5 1.5)"/><path d="M287.35,92.86a8.32,8.32,0,0,1,2.77,6.7,8.81,8.81,0,0,1-2.77,7q-2.77,2.46-7.85,2.46h-7.39v8.83h-2.7V90.5h10.08Q284.57,90.5,287.35,92.86Zm-1.93,11.92a6.31,6.31,0,0,0,2.13-5.14,6.08,6.08,0,0,0-2.11-5,9.37,9.37,0,0,0-6.06-1.72h-7.27v13.64h7.27A9.16,9.16,0,0,0,285.41,104.78Z" transform="translate(1.5 1.5)"/><path d="M314.46,117.81l-3.24-7.27H296.06l-3.2,7.27H290L302.27,90.5h2.81l12.31,27.31Zm-17.35-9.69h13.05L303.6,93.35Z" transform="translate(1.5 1.5)"/><path d="M341.7,90.5h2.66v27.31H341.5L324.58,94.68v23.13h-2.7V90.5h2.85l17,23.13Z" transform="translate(1.5 1.5)"/><path d="M372.77,90.5l-10.51,17.58v9.73h-2.7v-9.73L348.89,90.5h2.81l9.22,14.69,9-14.69Z" transform="translate(1.5 1.5)"/></svg>